<svg width="96" height="96" xmlns="http://www.w3.org/2000/svg" xmlns:xlink="http://www.w3.org/1999/xlink" overflow="hidden"><defs><clipPath id="clip0"><rect x="592" y="312" width="96" height="96"/></clipPath></defs><g clip-path="url(#clip0)" transform="translate(-592 -312)"><path d="M681 343 601.437 343C601.424 343 601.421 342.992 601.43 342.983L614.706 329.707C615.103 329.323 615.114 328.69 614.731 328.293 614.347 327.896 613.714 327.885 613.317 328.268 613.308 328.276 613.3 328.285 613.292 328.293L598.292 343.293C597.902 343.684 597.902 344.316 598.292 344.707L613.292 359.707C613.676 360.104 614.309 360.115 614.706 359.732 615.103 359.348 615.114 358.715 614.731 358.318 614.722 358.309 614.714 358.301 614.706 358.293L601.43 345.017C601.421 345.008 601.424 345 601.437 345L681 345C681.552 345 682 344.552 682 344 682 343.448 681.552 343 681 343Z" fill="#000000" fill-rule="nonzero" fill-opacity="1"/><path d="M681.706 375.293 666.706 360.293C666.322 359.896 665.689 359.885 665.292 360.268 664.895 360.652 664.884 361.285 665.267 361.682 665.276 361.691 665.284 361.699 665.292 361.707L678.568 374.983C678.577 374.993 678.574 375 678.561 375L599 375C598.448 375 598 375.448 598 376 598 376.552 598.448 377 599 377L678.561 377C678.574 377 678.577 377.008 678.568 377.017L665.292 390.293C664.895 390.677 664.884 391.31 665.267 391.707 665.651 392.104 666.284 392.115 666.681 391.732 666.69 391.724 666.698 391.715 666.706 391.707L681.706 376.707C682.096 376.316 682.096 375.684 681.706 375.293Z" fill="#000000" fill-rule="nonzero" fill-opacity="1"/></g></svg>